<?xml version="1.0" encoding="utf-8" standalone="no"?>
<!DOCTYPE svg PUBLIC "-//W3C//DTD SVG 1.1//EN"
  "http://www.w3.org/Graphics/SVG/1.1/DTD/svg11.dtd">
<svg height="720pt" version="1.1" viewBox="0 0 864 720" width="864pt" xmlns="http://www.w3.org/2000/svg" xmlns:xlink="http://www.w3.org/1999/xlink">
 <metadata>
  <rdf:RDF xmlns:cc="http://creativecommons.org/ns#" xmlns:dc="http://purl.org/dc/elements/1.1/" xmlns:rdf="http://www.w3.org/1999/02/22-rdf-syntax-ns#">
   <cc:Work>
    <dc:type rdf:resource="http://purl.org/dc/dcmitype/StillImage"/>
    <dc:date>2021-10-22T11:12:20.925121</dc:date>
    <dc:format>image/svg+xml</dc:format>
    <dc:creator>
     <cc:Agent>
      <dc:title>Matplotlib v3.4.3, https://matplotlib.org/</dc:title>
     </cc:Agent>
    </dc:creator>
   </cc:Work>
  </rdf:RDF>
 </metadata>
 <defs>
  <style type="text/css">*{stroke-linecap:butt;stroke-linejoin:round;}</style>
 </defs>
 <g id="figure_1">
  <g id="patch_1">
   <path d="M 0 720 
L 864 720 
L 864 0 
L 0 0 
z
" style="fill:#ffffff;"/>
  </g>
  <g id="axes_1">
   <g id="patch_2">
    <path d="M 108 630 
L 777.6 630 
L 777.6 86.4 
L 108 86.4 
z
" style="fill:#e5e5e5;"/>
   </g>
   <g id="matplotlib.axis_1">
    <g id="xtick_1">
     <g id="line2d_1">
      <path clip-path="url(#p7f39ff82fc)" d="M 167.423377 630 
L 167.423377 86.4 
" style="fill:none;stroke:#ffffff;stroke-linecap:square;stroke-width:0.8;"/>
     </g>
     <g id="line2d_2">
      <defs>
       <path d="M 0 0 
L 0 3.5 
" id="m5a1ba28b53" style="stroke:#555555;stroke-width:0.8;"/>
      </defs>
      <g>
       <use style="fill:#555555;stroke:#555555;stroke-width:0.8;" x="167.423377" xlink:href="#m5a1ba28b53" y="630"/>
      </g>
     </g>
     <g id="text_1">
      <!-- 1960 -->
      <g style="fill:#555555;" transform="translate(141.973377 652.196875)scale(0.2 -0.2)">
       <defs>
        <path d="M 794 531 
L 1825 531 
L 1825 4091 
L 703 3866 
L 703 4441 
L 1819 4666 
L 2450 4666 
L 2450 531 
L 3481 531 
L 3481 0 
L 794 0 
L 794 531 
z
" id="DejaVuSans-31" transform="scale(0.015625)"/>
        <path d="M 703 97 
L 703 672 
Q 941 559 1184 500 
Q 1428 441 1663 441 
Q 2288 441 2617 861 
Q 2947 1281 2994 2138 
Q 2813 1869 2534 1725 
Q 2256 1581 1919 1581 
Q 1219 1581 811 2004 
Q 403 2428 403 3163 
Q 403 3881 828 4315 
Q 1253 4750 1959 4750 
Q 2769 4750 3195 4129 
Q 3622 3509 3622 2328 
Q 3622 1225 3098 567 
Q 2575 -91 1691 -91 
Q 1453 -91 1209 -44 
Q 966 3 703 97 
z
M 1959 2075 
Q 2384 2075 2632 2365 
Q 2881 2656 2881 3163 
Q 2881 3666 2632 3958 
Q 2384 4250 1959 4250 
Q 1534 4250 1286 3958 
Q 1038 3666 1038 3163 
Q 1038 2656 1286 2365 
Q 1534 2075 1959 2075 
z
" id="DejaVuSans-39" transform="scale(0.015625)"/>
        <path d="M 2113 2584 
Q 1688 2584 1439 2293 
Q 1191 2003 1191 1497 
Q 1191 994 1439 701 
Q 1688 409 2113 409 
Q 2538 409 2786 701 
Q 3034 994 3034 1497 
Q 3034 2003 2786 2293 
Q 2538 2584 2113 2584 
z
M 3366 4563 
L 3366 3988 
Q 3128 4100 2886 4159 
Q 2644 4219 2406 4219 
Q 1781 4219 1451 3797 
Q 1122 3375 1075 2522 
Q 1259 2794 1537 2939 
Q 1816 3084 2150 3084 
Q 2853 3084 3261 2657 
Q 3669 2231 3669 1497 
Q 3669 778 3244 343 
Q 2819 -91 2113 -91 
Q 1303 -91 875 529 
Q 447 1150 447 2328 
Q 447 3434 972 4092 
Q 1497 4750 2381 4750 
Q 2619 4750 2861 4703 
Q 3103 4656 3366 4563 
z
" id="DejaVuSans-36" transform="scale(0.015625)"/>
        <path d="M 2034 4250 
Q 1547 4250 1301 3770 
Q 1056 3291 1056 2328 
Q 1056 1369 1301 889 
Q 1547 409 2034 409 
Q 2525 409 2770 889 
Q 3016 1369 3016 2328 
Q 3016 3291 2770 3770 
Q 2525 4250 2034 4250 
z
M 2034 4750 
Q 2819 4750 3233 4129 
Q 3647 3509 3647 2328 
Q 3647 1150 3233 529 
Q 2819 -91 2034 -91 
Q 1250 -91 836 529 
Q 422 1150 422 2328 
Q 422 3509 836 4129 
Q 1250 4750 2034 4750 
z
" id="DejaVuSans-30" transform="scale(0.015625)"/>
       </defs>
       <use xlink:href="#DejaVuSans-31"/>
       <use x="63.623047" xlink:href="#DejaVuSans-39"/>
       <use x="127.246094" xlink:href="#DejaVuSans-36"/>
       <use x="190.869141" xlink:href="#DejaVuSans-30"/>
      </g>
     </g>
    </g>
    <g id="xtick_2">
     <g id="line2d_3">
      <path clip-path="url(#p7f39ff82fc)" d="M 264.046753 630 
L 264.046753 86.4 
" style="fill:none;stroke:#ffffff;stroke-linecap:square;stroke-width:0.8;"/>
     </g>
     <g id="line2d_4">
      <g>
       <use style="fill:#555555;stroke:#555555;stroke-width:0.8;" x="264.046753" xlink:href="#m5a1ba28b53" y="630"/>
      </g>
     </g>
     <g id="text_2">
      <!-- 1970 -->
      <g style="fill:#555555;" transform="translate(238.596753 652.196875)scale(0.2 -0.2)">
       <defs>
        <path d="M 525 4666 
L 3525 4666 
L 3525 4397 
L 1831 0 
L 1172 0 
L 2766 4134 
L 525 4134 
L 525 4666 
z
" id="DejaVuSans-37" transform="scale(0.015625)"/>
       </defs>
       <use xlink:href="#DejaVuSans-31"/>
       <use x="63.623047" xlink:href="#DejaVuSans-39"/>
       <use x="127.246094" xlink:href="#DejaVuSans-37"/>
       <use x="190.869141" xlink:href="#DejaVuSans-30"/>
      </g>
     </g>
    </g>
    <g id="xtick_3">
     <g id="line2d_5">
      <path clip-path="url(#p7f39ff82fc)" d="M 360.67013 630 
L 360.67013 86.4 
" style="fill:none;stroke:#ffffff;stroke-linecap:square;stroke-width:0.8;"/>
     </g>
     <g id="line2d_6">
      <g>
       <use style="fill:#555555;stroke:#555555;stroke-width:0.8;" x="360.67013" xlink:href="#m5a1ba28b53" y="630"/>
      </g>
     </g>
     <g id="text_3">
      <!-- 1980 -->
      <g style="fill:#555555;" transform="translate(335.22013 652.196875)scale(0.2 -0.2)">
       <defs>
        <path d="M 2034 2216 
Q 1584 2216 1326 1975 
Q 1069 1734 1069 1313 
Q 1069 891 1326 650 
Q 1584 409 2034 409 
Q 2484 409 2743 651 
Q 3003 894 3003 1313 
Q 3003 1734 2745 1975 
Q 2488 2216 2034 2216 
z
M 1403 2484 
Q 997 2584 770 2862 
Q 544 3141 544 3541 
Q 544 4100 942 4425 
Q 1341 4750 2034 4750 
Q 2731 4750 3128 4425 
Q 3525 4100 3525 3541 
Q 3525 3141 3298 2862 
Q 3072 2584 2669 2484 
Q 3125 2378 3379 2068 
Q 3634 1759 3634 1313 
Q 3634 634 3220 271 
Q 2806 -91 2034 -91 
Q 1263 -91 848 271 
Q 434 634 434 1313 
Q 434 1759 690 2068 
Q 947 2378 1403 2484 
z
M 1172 3481 
Q 1172 3119 1398 2916 
Q 1625 2713 2034 2713 
Q 2441 2713 2670 2916 
Q 2900 3119 2900 3481 
Q 2900 3844 2670 4047 
Q 2441 4250 2034 4250 
Q 1625 4250 1398 4047 
Q 1172 3844 1172 3481 
z
" id="DejaVuSans-38" transform="scale(0.015625)"/>
       </defs>
       <use xlink:href="#DejaVuSans-31"/>
       <use x="63.623047" xlink:href="#DejaVuSans-39"/>
       <use x="127.246094" xlink:href="#DejaVuSans-38"/>
       <use x="190.869141" xlink:href="#DejaVuSans-30"/>
      </g>
     </g>
    </g>
    <g id="xtick_4">
     <g id="line2d_7">
      <path clip-path="url(#p7f39ff82fc)" d="M 457.293506 630 
L 457.293506 86.4 
" style="fill:none;stroke:#ffffff;stroke-linecap:square;stroke-width:0.8;"/>
     </g>
     <g id="line2d_8">
      <g>
       <use style="fill:#555555;stroke:#555555;stroke-width:0.8;" x="457.293506" xlink:href="#m5a1ba28b53" y="630"/>
      </g>
     </g>
     <g id="text_4">
      <!-- 1990 -->
      <g style="fill:#555555;" transform="translate(431.843506 652.196875)scale(0.2 -0.2)">
       <use xlink:href="#DejaVuSans-31"/>
       <use x="63.623047" xlink:href="#DejaVuSans-39"/>
       <use x="127.246094" xlink:href="#DejaVuSans-39"/>
       <use x="190.869141" xlink:href="#DejaVuSans-30"/>
      </g>
     </g>
    </g>
    <g id="xtick_5">
     <g id="line2d_9">
      <path clip-path="url(#p7f39ff82fc)" d="M 553.916883 630 
L 553.916883 86.4 
" style="fill:none;stroke:#ffffff;stroke-linecap:square;stroke-width:0.8;"/>
     </g>
     <g id="line2d_10">
      <g>
       <use style="fill:#555555;stroke:#555555;stroke-width:0.8;" x="553.916883" xlink:href="#m5a1ba28b53" y="630"/>
      </g>
     </g>
     <g id="text_5">
      <!-- 2000 -->
      <g style="fill:#555555;" transform="translate(528.466883 652.196875)scale(0.2 -0.2)">
       <defs>
        <path d="M 1228 531 
L 3431 531 
L 3431 0 
L 469 0 
L 469 531 
Q 828 903 1448 1529 
Q 2069 2156 2228 2338 
Q 2531 2678 2651 2914 
Q 2772 3150 2772 3378 
Q 2772 3750 2511 3984 
Q 2250 4219 1831 4219 
Q 1534 4219 1204 4116 
Q 875 4013 500 3803 
L 500 4441 
Q 881 4594 1212 4672 
Q 1544 4750 1819 4750 
Q 2544 4750 2975 4387 
Q 3406 4025 3406 3419 
Q 3406 3131 3298 2873 
Q 3191 2616 2906 2266 
Q 2828 2175 2409 1742 
Q 1991 1309 1228 531 
z
" id="DejaVuSans-32" transform="scale(0.015625)"/>
       </defs>
       <use xlink:href="#DejaVuSans-32"/>
       <use x="63.623047" xlink:href="#DejaVuSans-30"/>
       <use x="127.246094" xlink:href="#DejaVuSans-30"/>
       <use x="190.869141" xlink:href="#DejaVuSans-30"/>
      </g>
     </g>
    </g>
    <g id="xtick_6">
     <g id="line2d_11">
      <path clip-path="url(#p7f39ff82fc)" d="M 650.54026 630 
L 650.54026 86.4 
" style="fill:none;stroke:#ffffff;stroke-linecap:square;stroke-width:0.8;"/>
     </g>
     <g id="line2d_12">
      <g>
       <use style="fill:#555555;stroke:#555555;stroke-width:0.8;" x="650.54026" xlink:href="#m5a1ba28b53" y="630"/>
      </g>
     </g>
     <g id="text_6">
      <!-- 2010 -->
      <g style="fill:#555555;" transform="translate(625.09026 652.196875)scale(0.2 -0.2)">
       <use xlink:href="#DejaVuSans-32"/>
       <use x="63.623047" xlink:href="#DejaVuSans-30"/>
       <use x="127.246094" xlink:href="#DejaVuSans-31"/>
       <use x="190.869141" xlink:href="#DejaVuSans-30"/>
      </g>
     </g>
    </g>
    <g id="xtick_7">
     <g id="line2d_13">
      <path clip-path="url(#p7f39ff82fc)" d="M 747.163636 630 
L 747.163636 86.4 
" style="fill:none;stroke:#ffffff;stroke-linecap:square;stroke-width:0.8;"/>
     </g>
     <g id="line2d_14">
      <g>
       <use style="fill:#555555;stroke:#555555;stroke-width:0.8;" x="747.163636" xlink:href="#m5a1ba28b53" y="630"/>
      </g>
     </g>
     <g id="text_7">
      <!-- 2020 -->
      <g style="fill:#555555;" transform="translate(721.713636 652.196875)scale(0.2 -0.2)">
       <use xlink:href="#DejaVuSans-32"/>
       <use x="63.623047" xlink:href="#DejaVuSans-30"/>
       <use x="127.246094" xlink:href="#DejaVuSans-32"/>
       <use x="190.869141" xlink:href="#DejaVuSans-30"/>
      </g>
     </g>
    </g>
   </g>
   <g id="matplotlib.axis_2">
    <g id="ytick_1">
     <g id="line2d_15">
      <path clip-path="url(#p7f39ff82fc)" d="M 108 605.290909 
L 777.6 605.290909 
" style="fill:none;stroke:#ffffff;stroke-linecap:square;stroke-width:0.8;"/>
     </g>
     <g id="line2d_16">
      <defs>
       <path d="M 0 0 
L -3.5 0 
" id="m5af5918dce" style="stroke:#555555;stroke-width:0.8;"/>
      </defs>
      <g>
       <use style="fill:#555555;stroke:#555555;stroke-width:0.8;" x="108" xlink:href="#m5af5918dce" y="605.290909"/>
      </g>
     </g>
     <g id="text_8">
      <!-- 0.0 -->
      <g style="fill:#555555;" transform="translate(69.19375 612.889347)scale(0.2 -0.2)">
       <defs>
        <path d="M 684 794 
L 1344 794 
L 1344 0 
L 684 0 
L 684 794 
z
" id="DejaVuSans-2e" transform="scale(0.015625)"/>
       </defs>
       <use xlink:href="#DejaVuSans-30"/>
       <use x="63.623047" xlink:href="#DejaVuSans-2e"/>
       <use x="95.410156" xlink:href="#DejaVuSans-30"/>
      </g>
     </g>
    </g>
    <g id="ytick_2">
     <g id="line2d_17">
      <path clip-path="url(#p7f39ff82fc)" d="M 108 513.478449 
L 777.6 513.478449 
" style="fill:none;stroke:#ffffff;stroke-linecap:square;stroke-width:0.8;"/>
     </g>
     <g id="line2d_18">
      <g>
       <use style="fill:#555555;stroke:#555555;stroke-width:0.8;" x="108" xlink:href="#m5af5918dce" y="513.478449"/>
      </g>
     </g>
     <g id="text_9">
      <!-- 0.1 -->
      <g style="fill:#555555;" transform="translate(69.19375 521.076887)scale(0.2 -0.2)">
       <use xlink:href="#DejaVuSans-30"/>
       <use x="63.623047" xlink:href="#DejaVuSans-2e"/>
       <use x="95.410156" xlink:href="#DejaVuSans-31"/>
      </g>
     </g>
    </g>
    <g id="ytick_3">
     <g id="line2d_19">
      <path clip-path="url(#p7f39ff82fc)" d="M 108 421.66599 
L 777.6 421.66599 
" style="fill:none;stroke:#ffffff;stroke-linecap:square;stroke-width:0.8;"/>
     </g>
     <g id="line2d_20">
      <g>
       <use style="fill:#555555;stroke:#555555;stroke-width:0.8;" x="108" xlink:href="#m5af5918dce" y="421.66599"/>
      </g>
     </g>
     <g id="text_10">
      <!-- 0.2 -->
      <g style="fill:#555555;" transform="translate(69.19375 429.264427)scale(0.2 -0.2)">
       <use xlink:href="#DejaVuSans-30"/>
       <use x="63.623047" xlink:href="#DejaVuSans-2e"/>
       <use x="95.410156" xlink:href="#DejaVuSans-32"/>
      </g>
     </g>
    </g>
    <g id="ytick_4">
     <g id="line2d_21">
      <path clip-path="url(#p7f39ff82fc)" d="M 108 329.85353 
L 777.6 329.85353 
" style="fill:none;stroke:#ffffff;stroke-linecap:square;stroke-width:0.8;"/>
     </g>
     <g id="line2d_22">
      <g>
       <use style="fill:#555555;stroke:#555555;stroke-width:0.8;" x="108" xlink:href="#m5af5918dce" y="329.85353"/>
      </g>
     </g>
     <g id="text_11">
      <!-- 0.3 -->
      <g style="fill:#555555;" transform="translate(69.19375 337.451968)scale(0.2 -0.2)">
       <defs>
        <path d="M 2597 2516 
Q 3050 2419 3304 2112 
Q 3559 1806 3559 1356 
Q 3559 666 3084 287 
Q 2609 -91 1734 -91 
Q 1441 -91 1130 -33 
Q 819 25 488 141 
L 488 750 
Q 750 597 1062 519 
Q 1375 441 1716 441 
Q 2309 441 2620 675 
Q 2931 909 2931 1356 
Q 2931 1769 2642 2001 
Q 2353 2234 1838 2234 
L 1294 2234 
L 1294 2753 
L 1863 2753 
Q 2328 2753 2575 2939 
Q 2822 3125 2822 3475 
Q 2822 3834 2567 4026 
Q 2313 4219 1838 4219 
Q 1578 4219 1281 4162 
Q 984 4106 628 3988 
L 628 4550 
Q 988 4650 1302 4700 
Q 1616 4750 1894 4750 
Q 2613 4750 3031 4423 
Q 3450 4097 3450 3541 
Q 3450 3153 3228 2886 
Q 3006 2619 2597 2516 
z
" id="DejaVuSans-33" transform="scale(0.015625)"/>
       </defs>
       <use xlink:href="#DejaVuSans-30"/>
       <use x="63.623047" xlink:href="#DejaVuSans-2e"/>
       <use x="95.410156" xlink:href="#DejaVuSans-33"/>
      </g>
     </g>
    </g>
    <g id="ytick_5">
     <g id="line2d_23">
      <path clip-path="url(#p7f39ff82fc)" d="M 108 238.041071 
L 777.6 238.041071 
" style="fill:none;stroke:#ffffff;stroke-linecap:square;stroke-width:0.8;"/>
     </g>
     <g id="line2d_24">
      <g>
       <use style="fill:#555555;stroke:#555555;stroke-width:0.8;" x="108" xlink:href="#m5af5918dce" y="238.041071"/>
      </g>
     </g>
     <g id="text_12">
      <!-- 0.4 -->
      <g style="fill:#555555;" transform="translate(69.19375 245.639508)scale(0.2 -0.2)">
       <defs>
        <path d="M 2419 4116 
L 825 1625 
L 2419 1625 
L 2419 4116 
z
M 2253 4666 
L 3047 4666 
L 3047 1625 
L 3713 1625 
L 3713 1100 
L 3047 1100 
L 3047 0 
L 2419 0 
L 2419 1100 
L 313 1100 
L 313 1709 
L 2253 4666 
z
" id="DejaVuSans-34" transform="scale(0.015625)"/>
       </defs>
       <use xlink:href="#DejaVuSans-30"/>
       <use x="63.623047" xlink:href="#DejaVuSans-2e"/>
       <use x="95.410156" xlink:href="#DejaVuSans-34"/>
      </g>
     </g>
    </g>
    <g id="ytick_6">
     <g id="line2d_25">
      <path clip-path="url(#p7f39ff82fc)" d="M 108 146.228611 
L 777.6 146.228611 
" style="fill:none;stroke:#ffffff;stroke-linecap:square;stroke-width:0.8;"/>
     </g>
     <g id="line2d_26">
      <g>
       <use style="fill:#555555;stroke:#555555;stroke-width:0.8;" x="108" xlink:href="#m5af5918dce" y="146.228611"/>
      </g>
     </g>
     <g id="text_13">
      <!-- 0.5 -->
      <g style="fill:#555555;" transform="translate(69.19375 153.827048)scale(0.2 -0.2)">
       <defs>
        <path d="M 691 4666 
L 3169 4666 
L 3169 4134 
L 1269 4134 
L 1269 2991 
Q 1406 3038 1543 3061 
Q 1681 3084 1819 3084 
Q 2600 3084 3056 2656 
Q 3513 2228 3513 1497 
Q 3513 744 3044 326 
Q 2575 -91 1722 -91 
Q 1428 -91 1123 -41 
Q 819 9 494 109 
L 494 744 
Q 775 591 1075 516 
Q 1375 441 1709 441 
Q 2250 441 2565 725 
Q 2881 1009 2881 1497 
Q 2881 1984 2565 2268 
Q 2250 2553 1709 2553 
Q 1456 2553 1204 2497 
Q 953 2441 691 2322 
L 691 4666 
z
" id="DejaVuSans-35" transform="scale(0.015625)"/>
       </defs>
       <use xlink:href="#DejaVuSans-30"/>
       <use x="63.623047" xlink:href="#DejaVuSans-2e"/>
       <use x="95.410156" xlink:href="#DejaVuSans-35"/>
      </g>
     </g>
    </g>
   </g>
   <g id="LineCollection_1">
    <path clip-path="url(#p7f39ff82fc)" d="M 138.436364 605.290909 
L 138.436364 345.820915 
" style="fill:none;stroke:#ff8c00;stroke-width:1.5;"/>
    <path clip-path="url(#p7f39ff82fc)" d="M 148.098701 605.290909 
L 148.098701 278.287628 
" style="fill:none;stroke:#ff8c00;stroke-width:1.5;"/>
    <path clip-path="url(#p7f39ff82fc)" d="M 177.085714 605.290909 
L 177.085714 263.195169 
" style="fill:none;stroke:#ff8c00;stroke-width:1.5;"/>
    <path clip-path="url(#p7f39ff82fc)" d="M 186.748052 605.290909 
L 186.748052 220.433202 
" style="fill:none;stroke:#ff8c00;stroke-width:1.5;"/>
    <path clip-path="url(#p7f39ff82fc)" d="M 196.41039 605.290909 
L 196.41039 247.121424 
" style="fill:none;stroke:#ff8c00;stroke-width:1.5;"/>
    <path clip-path="url(#p7f39ff82fc)" d="M 215.735065 605.290909 
L 215.735065 321.049596 
" style="fill:none;stroke:#ff8c00;stroke-width:1.5;"/>
    <path clip-path="url(#p7f39ff82fc)" d="M 225.397403 605.290909 
L 225.397403 205.340743 
" style="fill:none;stroke:#ff8c00;stroke-width:1.5;"/>
    <path clip-path="url(#p7f39ff82fc)" d="M 235.05974 605.290909 
L 235.05974 329.064311 
" style="fill:none;stroke:#ff8c00;stroke-width:1.5;"/>
    <path clip-path="url(#p7f39ff82fc)" d="M 244.722078 605.290909 
L 244.722078 321.826211 
" style="fill:none;stroke:#ff8c00;stroke-width:1.5;"/>
    <path clip-path="url(#p7f39ff82fc)" d="M 254.384416 605.290909 
L 254.384416 373.873203 
" style="fill:none;stroke:#ff8c00;stroke-width:1.5;"/>
    <path clip-path="url(#p7f39ff82fc)" d="M 264.046753 605.290909 
L 264.046753 365.670479 
" style="fill:none;stroke:#ff8c00;stroke-width:1.5;"/>
    <path clip-path="url(#p7f39ff82fc)" d="M 273.709091 605.290909 
L 273.709091 217.638302 
" style="fill:none;stroke:#ff8c00;stroke-width:1.5;"/>
    <path clip-path="url(#p7f39ff82fc)" d="M 293.033766 605.290909 
L 293.033766 363.811563 
" style="fill:none;stroke:#ff8c00;stroke-width:1.5;"/>
    <path clip-path="url(#p7f39ff82fc)" d="M 312.358442 605.290909 
L 312.358442 365.670479 
" style="fill:none;stroke:#ff8c00;stroke-width:1.5;"/>
    <path clip-path="url(#p7f39ff82fc)" d="M 331.683117 605.290909 
L 331.683117 308.472546 
" style="fill:none;stroke:#ff8c00;stroke-width:1.5;"/>
    <path clip-path="url(#p7f39ff82fc)" d="M 351.007792 605.290909 
L 351.007792 313.503366 
" style="fill:none;stroke:#ff8c00;stroke-width:1.5;"/>
    <path clip-path="url(#p7f39ff82fc)" d="M 370.332468 605.290909 
L 370.332468 376.388613 
" style="fill:none;stroke:#ff8c00;stroke-width:1.5;"/>
    <path clip-path="url(#p7f39ff82fc)" d="M 418.644156 605.290909 
L 418.644156 343.688284 
" style="fill:none;stroke:#ff8c00;stroke-width:1.5;"/>
    <path clip-path="url(#p7f39ff82fc)" d="M 447.631169 605.290909 
L 447.631169 373.873203 
" style="fill:none;stroke:#ff8c00;stroke-width:1.5;"/>
    <path clip-path="url(#p7f39ff82fc)" d="M 457.293506 605.290909 
L 457.293506 321.049596 
" style="fill:none;stroke:#ff8c00;stroke-width:1.5;"/>
    <path clip-path="url(#p7f39ff82fc)" d="M 495.942857 605.290909 
L 495.942857 187.732874 
" style="fill:none;stroke:#ff8c00;stroke-width:1.5;"/>
    <path clip-path="url(#p7f39ff82fc)" d="M 505.605195 605.290909 
L 505.605195 328.595825 
" style="fill:none;stroke:#ff8c00;stroke-width:1.5;"/>
    <path clip-path="url(#p7f39ff82fc)" d="M 515.267532 605.290909 
L 515.267532 359.454269 
" style="fill:none;stroke:#ff8c00;stroke-width:1.5;"/>
    <path clip-path="url(#p7f39ff82fc)" d="M 524.92987 605.290909 
L 524.92987 366.326973 
" style="fill:none;stroke:#ff8c00;stroke-width:1.5;"/>
    <path clip-path="url(#p7f39ff82fc)" d="M 534.592208 605.290909 
L 534.592208 295.895497 
" style="fill:none;stroke:#ff8c00;stroke-width:1.5;"/>
    <path clip-path="url(#p7f39ff82fc)" d="M 544.254545 605.290909 
L 544.254545 211.808939 
" style="fill:none;stroke:#ff8c00;stroke-width:1.5;"/>
    <path clip-path="url(#p7f39ff82fc)" d="M 553.916883 605.290909 
L 553.916883 244.06156 
" style="fill:none;stroke:#ff8c00;stroke-width:1.5;"/>
    <path clip-path="url(#p7f39ff82fc)" d="M 563.579221 605.290909 
L 563.579221 268.225989 
" style="fill:none;stroke:#ff8c00;stroke-width:1.5;"/>
    <path clip-path="url(#p7f39ff82fc)" d="M 573.241558 605.290909 
L 573.241558 321.049596 
" style="fill:none;stroke:#ff8c00;stroke-width:1.5;"/>
    <path clip-path="url(#p7f39ff82fc)" d="M 582.903896 605.290909 
L 582.903896 328.595825 
" style="fill:none;stroke:#ff8c00;stroke-width:1.5;"/>
    <path clip-path="url(#p7f39ff82fc)" d="M 592.566234 605.290909 
L 592.566234 341.894509 
" style="fill:none;stroke:#ff8c00;stroke-width:1.5;"/>
    <path clip-path="url(#p7f39ff82fc)" d="M 611.890909 605.290909 
L 611.890909 344.776217 
" style="fill:none;stroke:#ff8c00;stroke-width:1.5;"/>
    <path clip-path="url(#p7f39ff82fc)" d="M 621.553247 605.290909 
L 621.553247 284.956229 
" style="fill:none;stroke:#ff8c00;stroke-width:1.5;"/>
    <path clip-path="url(#p7f39ff82fc)" d="M 631.215584 605.290909 
L 631.215584 241.553023 
" style="fill:none;stroke:#ff8c00;stroke-width:1.5;"/>
    <path clip-path="url(#p7f39ff82fc)" d="M 640.877922 605.290909 
L 640.877922 313.503366 
" style="fill:none;stroke:#ff8c00;stroke-width:1.5;"/>
    <path clip-path="url(#p7f39ff82fc)" d="M 650.54026 605.290909 
L 650.54026 175.155824 
" style="fill:none;stroke:#ff8c00;stroke-width:1.5;"/>
    <path clip-path="url(#p7f39ff82fc)" d="M 660.202597 605.290909 
L 660.202597 230.494841 
" style="fill:none;stroke:#ff8c00;stroke-width:1.5;"/>
    <path clip-path="url(#p7f39ff82fc)" d="M 669.864935 605.290909 
L 669.864935 111.109091 
" style="fill:none;stroke:#ff8c00;stroke-width:1.5;"/>
    <path clip-path="url(#p7f39ff82fc)" d="M 679.527273 605.290909 
L 679.527273 179.018775 
" style="fill:none;stroke:#ff8c00;stroke-width:1.5;"/>
    <path clip-path="url(#p7f39ff82fc)" d="M 689.18961 605.290909 
L 689.18961 165.094185 
" style="fill:none;stroke:#ff8c00;stroke-width:1.5;"/>
    <path clip-path="url(#p7f39ff82fc)" d="M 698.851948 605.290909 
L 698.851948 263.195169 
" style="fill:none;stroke:#ff8c00;stroke-width:1.5;"/>
    <path clip-path="url(#p7f39ff82fc)" d="M 708.514286 605.290909 
L 708.514286 206.433503 
" style="fill:none;stroke:#ff8c00;stroke-width:1.5;"/>
    <path clip-path="url(#p7f39ff82fc)" d="M 718.176623 605.290909 
L 718.176623 177.671234 
" style="fill:none;stroke:#ff8c00;stroke-width:1.5;"/>
    <path clip-path="url(#p7f39ff82fc)" d="M 727.838961 605.290909 
L 727.838961 170.125005 
" style="fill:none;stroke:#ff8c00;stroke-width:1.5;"/>
    <path clip-path="url(#p7f39ff82fc)" d="M 737.501299 605.290909 
L 737.501299 195.279103 
" style="fill:none;stroke:#ff8c00;stroke-width:1.5;"/>
    <path clip-path="url(#p7f39ff82fc)" d="M 747.163636 605.290909 
L 747.163636 183.856668 
" style="fill:none;stroke:#ff8c00;stroke-width:1.5;"/>
   </g>
   <g id="LineCollection_2">
    <path clip-path="url(#p7f39ff82fc)" d="M 206.072727 605.290909 
L 206.072727 384.53964 
" style="fill:none;stroke:#0000ff;stroke-width:1.5;"/>
    <path clip-path="url(#p7f39ff82fc)" d="M 302.696104 605.290909 
L 302.696104 441.614101 
" style="fill:none;stroke:#0000ff;stroke-width:1.5;"/>
    <path clip-path="url(#p7f39ff82fc)" d="M 322.020779 605.290909 
L 322.020779 414.11976 
" style="fill:none;stroke:#0000ff;stroke-width:1.5;"/>
    <path clip-path="url(#p7f39ff82fc)" d="M 341.345455 605.290909 
L 341.345455 411.60435 
" style="fill:none;stroke:#0000ff;stroke-width:1.5;"/>
    <path clip-path="url(#p7f39ff82fc)" d="M 360.67013 605.290909 
L 360.67013 447.253069 
" style="fill:none;stroke:#0000ff;stroke-width:1.5;"/>
    <path clip-path="url(#p7f39ff82fc)" d="M 379.994805 605.290909 
L 379.994805 477.005007 
" style="fill:none;stroke:#0000ff;stroke-width:1.5;"/>
    <path clip-path="url(#p7f39ff82fc)" d="M 389.657143 605.290909 
L 389.657143 484.551236 
" style="fill:none;stroke:#0000ff;stroke-width:1.5;"/>
    <path clip-path="url(#p7f39ff82fc)" d="M 399.319481 605.290909 
L 399.319481 447.253069 
" style="fill:none;stroke:#0000ff;stroke-width:1.5;"/>
    <path clip-path="url(#p7f39ff82fc)" d="M 408.981818 605.290909 
L 408.981818 393.996481 
" style="fill:none;stroke:#0000ff;stroke-width:1.5;"/>
    <path clip-path="url(#p7f39ff82fc)" d="M 428.306494 605.290909 
L 428.306494 444.304679 
" style="fill:none;stroke:#0000ff;stroke-width:1.5;"/>
    <path clip-path="url(#p7f39ff82fc)" d="M 437.968831 605.290909 
L 437.968831 444.744532 
" style="fill:none;stroke:#0000ff;stroke-width:1.5;"/>
    <path clip-path="url(#p7f39ff82fc)" d="M 466.955844 605.290909 
L 466.955844 434.243039 
" style="fill:none;stroke:#0000ff;stroke-width:1.5;"/>
    <path clip-path="url(#p7f39ff82fc)" d="M 476.618182 605.290909 
L 476.618182 424.676234 
" style="fill:none;stroke:#0000ff;stroke-width:1.5;"/>
    <path clip-path="url(#p7f39ff82fc)" d="M 486.280519 605.290909 
L 486.280519 383.934842 
" style="fill:none;stroke:#0000ff;stroke-width:1.5;"/>
    <path clip-path="url(#p7f39ff82fc)" d="M 602.228571 605.290909 
L 602.228571 396.511891 
" style="fill:none;stroke:#0000ff;stroke-width:1.5;"/>
   </g>
   <g id="line2d_27"/>
   <g id="line2d_28">
    <path clip-path="url(#p7f39ff82fc)" d="M 138.436364 605.290909 
L 747.163636 605.290909 
" style="fill:none;stroke:#777777;stroke-linecap:square;stroke-width:1.5;"/>
   </g>
   <g id="line2d_29"/>
   <g id="line2d_30">
    <path clip-path="url(#p7f39ff82fc)" d="M 206.072727 605.290909 
L 602.228571 605.290909 
" style="fill:none;stroke:#777777;stroke-linecap:square;stroke-width:1.5;"/>
   </g>
   <g id="line2d_31">
    <path clip-path="url(#p7f39ff82fc)" d="M 108 376.990802 
L 777.6 376.990802 
" style="fill:none;stroke:#808080;stroke-linecap:square;stroke-width:1.5;"/>
   </g>
   <g id="patch_3">
    <path d="M 108 630 
L 108 86.4 
" style="fill:none;stroke:#ffffff;stroke-linecap:square;stroke-linejoin:miter;"/>
   </g>
   <g id="patch_4">
    <path d="M 777.6 630 
L 777.6 86.4 
" style="fill:none;stroke:#ffffff;stroke-linecap:square;stroke-linejoin:miter;"/>
   </g>
   <g id="patch_5">
    <path d="M 108 630 
L 777.6 630 
" style="fill:none;stroke:#ffffff;stroke-linecap:square;stroke-linejoin:miter;"/>
   </g>
   <g id="patch_6">
    <path d="M 108 86.4 
L 777.6 86.4 
" style="fill:none;stroke:#ffffff;stroke-linecap:square;stroke-linejoin:miter;"/>
   </g>
  </g>
 </g>
 <defs>
  <clipPath id="p7f39ff82fc">
   <rect height="543.6" width="669.6" x="108" y="86.4"/>
  </clipPath>
 </defs>
</svg>
