<?xml version="1.0" encoding="utf-8" standalone="no"?>
<!DOCTYPE svg PUBLIC "-//W3C//DTD SVG 1.1//EN"
  "http://www.w3.org/Graphics/SVG/1.1/DTD/svg11.dtd">
<svg height="720pt" version="1.1" viewBox="0 0 864 720" width="864pt" xmlns="http://www.w3.org/2000/svg" xmlns:xlink="http://www.w3.org/1999/xlink">
 <metadata>
  <rdf:RDF xmlns:cc="http://creativecommons.org/ns#" xmlns:dc="http://purl.org/dc/elements/1.1/" xmlns:rdf="http://www.w3.org/1999/02/22-rdf-syntax-ns#">
   <cc:Work>
    <dc:type rdf:resource="http://purl.org/dc/dcmitype/StillImage"/>
    <dc:date>2021-10-22T10:15:42.334101</dc:date>
    <dc:format>image/svg+xml</dc:format>
    <dc:creator>
     <cc:Agent>
      <dc:title>Matplotlib v3.4.3, https://matplotlib.org/</dc:title>
     </cc:Agent>
    </dc:creator>
   </cc:Work>
  </rdf:RDF>
 </metadata>
 <defs>
  <style type="text/css">*{stroke-linecap:butt;stroke-linejoin:round;}</style>
 </defs>
 <g id="figure_1">
  <g id="patch_1">
   <path d="M 0 720 
L 864 720 
L 864 0 
L 0 0 
z
" style="fill:#ffffff;"/>
  </g>
  <g id="axes_1">
   <g id="patch_2">
    <path d="M 108 630 
L 777.6 630 
L 777.6 86.4 
L 108 86.4 
z
" style="fill:#e5e5e5;"/>
   </g>
   <g id="matplotlib.axis_1">
    <g id="xtick_1">
     <g id="line2d_1">
      <path clip-path="url(#p4a5e92109a)" d="M 167.423377 630 
L 167.423377 86.4 
" style="fill:none;stroke:#ffffff;stroke-linecap:square;stroke-width:0.8;"/>
     </g>
     <g id="line2d_2">
      <defs>
       <path d="M 0 0 
L 0 3.5 
" id="mab3f0c285c" style="stroke:#555555;stroke-width:0.8;"/>
      </defs>
      <g>
       <use style="fill:#555555;stroke:#555555;stroke-width:0.8;" x="167.423377" xlink:href="#mab3f0c285c" y="630"/>
      </g>
     </g>
     <g id="text_1">
      <!-- 1960 -->
      <g style="fill:#555555;" transform="translate(154.698377 644.598438)scale(0.1 -0.1)">
       <defs>
        <path d="M 794 531 
L 1825 531 
L 1825 4091 
L 703 3866 
L 703 4441 
L 1819 4666 
L 2450 4666 
L 2450 531 
L 3481 531 
L 3481 0 
L 794 0 
L 794 531 
z
" id="DejaVuSans-31" transform="scale(0.015625)"/>
        <path d="M 703 97 
L 703 672 
Q 941 559 1184 500 
Q 1428 441 1663 441 
Q 2288 441 2617 861 
Q 2947 1281 2994 2138 
Q 2813 1869 2534 1725 
Q 2256 1581 1919 1581 
Q 1219 1581 811 2004 
Q 403 2428 403 3163 
Q 403 3881 828 4315 
Q 1253 4750 1959 4750 
Q 2769 4750 3195 4129 
Q 3622 3509 3622 2328 
Q 3622 1225 3098 567 
Q 2575 -91 1691 -91 
Q 1453 -91 1209 -44 
Q 966 3 703 97 
z
M 1959 2075 
Q 2384 2075 2632 2365 
Q 2881 2656 2881 3163 
Q 2881 3666 2632 3958 
Q 2384 4250 1959 4250 
Q 1534 4250 1286 3958 
Q 1038 3666 1038 3163 
Q 1038 2656 1286 2365 
Q 1534 2075 1959 2075 
z
" id="DejaVuSans-39" transform="scale(0.015625)"/>
        <path d="M 2113 2584 
Q 1688 2584 1439 2293 
Q 1191 2003 1191 1497 
Q 1191 994 1439 701 
Q 1688 409 2113 409 
Q 2538 409 2786 701 
Q 3034 994 3034 1497 
Q 3034 2003 2786 2293 
Q 2538 2584 2113 2584 
z
M 3366 4563 
L 3366 3988 
Q 3128 4100 2886 4159 
Q 2644 4219 2406 4219 
Q 1781 4219 1451 3797 
Q 1122 3375 1075 2522 
Q 1259 2794 1537 2939 
Q 1816 3084 2150 3084 
Q 2853 3084 3261 2657 
Q 3669 2231 3669 1497 
Q 3669 778 3244 343 
Q 2819 -91 2113 -91 
Q 1303 -91 875 529 
Q 447 1150 447 2328 
Q 447 3434 972 4092 
Q 1497 4750 2381 4750 
Q 2619 4750 2861 4703 
Q 3103 4656 3366 4563 
z
" id="DejaVuSans-36" transform="scale(0.015625)"/>
        <path d="M 2034 4250 
Q 1547 4250 1301 3770 
Q 1056 3291 1056 2328 
Q 1056 1369 1301 889 
Q 1547 409 2034 409 
Q 2525 409 2770 889 
Q 3016 1369 3016 2328 
Q 3016 3291 2770 3770 
Q 2525 4250 2034 4250 
z
M 2034 4750 
Q 2819 4750 3233 4129 
Q 3647 3509 3647 2328 
Q 3647 1150 3233 529 
Q 2819 -91 2034 -91 
Q 1250 -91 836 529 
Q 422 1150 422 2328 
Q 422 3509 836 4129 
Q 1250 4750 2034 4750 
z
" id="DejaVuSans-30" transform="scale(0.015625)"/>
       </defs>
       <use xlink:href="#DejaVuSans-31"/>
       <use x="63.623047" xlink:href="#DejaVuSans-39"/>
       <use x="127.246094" xlink:href="#DejaVuSans-36"/>
       <use x="190.869141" xlink:href="#DejaVuSans-30"/>
      </g>
     </g>
    </g>
    <g id="xtick_2">
     <g id="line2d_3">
      <path clip-path="url(#p4a5e92109a)" d="M 264.046753 630 
L 264.046753 86.4 
" style="fill:none;stroke:#ffffff;stroke-linecap:square;stroke-width:0.8;"/>
     </g>
     <g id="line2d_4">
      <g>
       <use style="fill:#555555;stroke:#555555;stroke-width:0.8;" x="264.046753" xlink:href="#mab3f0c285c" y="630"/>
      </g>
     </g>
     <g id="text_2">
      <!-- 1970 -->
      <g style="fill:#555555;" transform="translate(251.321753 644.598438)scale(0.1 -0.1)">
       <defs>
        <path d="M 525 4666 
L 3525 4666 
L 3525 4397 
L 1831 0 
L 1172 0 
L 2766 4134 
L 525 4134 
L 525 4666 
z
" id="DejaVuSans-37" transform="scale(0.015625)"/>
       </defs>
       <use xlink:href="#DejaVuSans-31"/>
       <use x="63.623047" xlink:href="#DejaVuSans-39"/>
       <use x="127.246094" xlink:href="#DejaVuSans-37"/>
       <use x="190.869141" xlink:href="#DejaVuSans-30"/>
      </g>
     </g>
    </g>
    <g id="xtick_3">
     <g id="line2d_5">
      <path clip-path="url(#p4a5e92109a)" d="M 360.67013 630 
L 360.67013 86.4 
" style="fill:none;stroke:#ffffff;stroke-linecap:square;stroke-width:0.8;"/>
     </g>
     <g id="line2d_6">
      <g>
       <use style="fill:#555555;stroke:#555555;stroke-width:0.8;" x="360.67013" xlink:href="#mab3f0c285c" y="630"/>
      </g>
     </g>
     <g id="text_3">
      <!-- 1980 -->
      <g style="fill:#555555;" transform="translate(347.94513 644.598438)scale(0.1 -0.1)">
       <defs>
        <path d="M 2034 2216 
Q 1584 2216 1326 1975 
Q 1069 1734 1069 1313 
Q 1069 891 1326 650 
Q 1584 409 2034 409 
Q 2484 409 2743 651 
Q 3003 894 3003 1313 
Q 3003 1734 2745 1975 
Q 2488 2216 2034 2216 
z
M 1403 2484 
Q 997 2584 770 2862 
Q 544 3141 544 3541 
Q 544 4100 942 4425 
Q 1341 4750 2034 4750 
Q 2731 4750 3128 4425 
Q 3525 4100 3525 3541 
Q 3525 3141 3298 2862 
Q 3072 2584 2669 2484 
Q 3125 2378 3379 2068 
Q 3634 1759 3634 1313 
Q 3634 634 3220 271 
Q 2806 -91 2034 -91 
Q 1263 -91 848 271 
Q 434 634 434 1313 
Q 434 1759 690 2068 
Q 947 2378 1403 2484 
z
M 1172 3481 
Q 1172 3119 1398 2916 
Q 1625 2713 2034 2713 
Q 2441 2713 2670 2916 
Q 2900 3119 2900 3481 
Q 2900 3844 2670 4047 
Q 2441 4250 2034 4250 
Q 1625 4250 1398 4047 
Q 1172 3844 1172 3481 
z
" id="DejaVuSans-38" transform="scale(0.015625)"/>
       </defs>
       <use xlink:href="#DejaVuSans-31"/>
       <use x="63.623047" xlink:href="#DejaVuSans-39"/>
       <use x="127.246094" xlink:href="#DejaVuSans-38"/>
       <use x="190.869141" xlink:href="#DejaVuSans-30"/>
      </g>
     </g>
    </g>
    <g id="xtick_4">
     <g id="line2d_7">
      <path clip-path="url(#p4a5e92109a)" d="M 457.293506 630 
L 457.293506 86.4 
" style="fill:none;stroke:#ffffff;stroke-linecap:square;stroke-width:0.8;"/>
     </g>
     <g id="line2d_8">
      <g>
       <use style="fill:#555555;stroke:#555555;stroke-width:0.8;" x="457.293506" xlink:href="#mab3f0c285c" y="630"/>
      </g>
     </g>
     <g id="text_4">
      <!-- 1990 -->
      <g style="fill:#555555;" transform="translate(444.568506 644.598438)scale(0.1 -0.1)">
       <use xlink:href="#DejaVuSans-31"/>
       <use x="63.623047" xlink:href="#DejaVuSans-39"/>
       <use x="127.246094" xlink:href="#DejaVuSans-39"/>
       <use x="190.869141" xlink:href="#DejaVuSans-30"/>
      </g>
     </g>
    </g>
    <g id="xtick_5">
     <g id="line2d_9">
      <path clip-path="url(#p4a5e92109a)" d="M 553.916883 630 
L 553.916883 86.4 
" style="fill:none;stroke:#ffffff;stroke-linecap:square;stroke-width:0.8;"/>
     </g>
     <g id="line2d_10">
      <g>
       <use style="fill:#555555;stroke:#555555;stroke-width:0.8;" x="553.916883" xlink:href="#mab3f0c285c" y="630"/>
      </g>
     </g>
     <g id="text_5">
      <!-- 2000 -->
      <g style="fill:#555555;" transform="translate(541.191883 644.598438)scale(0.1 -0.1)">
       <defs>
        <path d="M 1228 531 
L 3431 531 
L 3431 0 
L 469 0 
L 469 531 
Q 828 903 1448 1529 
Q 2069 2156 2228 2338 
Q 2531 2678 2651 2914 
Q 2772 3150 2772 3378 
Q 2772 3750 2511 3984 
Q 2250 4219 1831 4219 
Q 1534 4219 1204 4116 
Q 875 4013 500 3803 
L 500 4441 
Q 881 4594 1212 4672 
Q 1544 4750 1819 4750 
Q 2544 4750 2975 4387 
Q 3406 4025 3406 3419 
Q 3406 3131 3298 2873 
Q 3191 2616 2906 2266 
Q 2828 2175 2409 1742 
Q 1991 1309 1228 531 
z
" id="DejaVuSans-32" transform="scale(0.015625)"/>
       </defs>
       <use xlink:href="#DejaVuSans-32"/>
       <use x="63.623047" xlink:href="#DejaVuSans-30"/>
       <use x="127.246094" xlink:href="#DejaVuSans-30"/>
       <use x="190.869141" xlink:href="#DejaVuSans-30"/>
      </g>
     </g>
    </g>
    <g id="xtick_6">
     <g id="line2d_11">
      <path clip-path="url(#p4a5e92109a)" d="M 650.54026 630 
L 650.54026 86.4 
" style="fill:none;stroke:#ffffff;stroke-linecap:square;stroke-width:0.8;"/>
     </g>
     <g id="line2d_12">
      <g>
       <use style="fill:#555555;stroke:#555555;stroke-width:0.8;" x="650.54026" xlink:href="#mab3f0c285c" y="630"/>
      </g>
     </g>
     <g id="text_6">
      <!-- 2010 -->
      <g style="fill:#555555;" transform="translate(637.81526 644.598438)scale(0.1 -0.1)">
       <use xlink:href="#DejaVuSans-32"/>
       <use x="63.623047" xlink:href="#DejaVuSans-30"/>
       <use x="127.246094" xlink:href="#DejaVuSans-31"/>
       <use x="190.869141" xlink:href="#DejaVuSans-30"/>
      </g>
     </g>
    </g>
    <g id="xtick_7">
     <g id="line2d_13">
      <path clip-path="url(#p4a5e92109a)" d="M 747.163636 630 
L 747.163636 86.4 
" style="fill:none;stroke:#ffffff;stroke-linecap:square;stroke-width:0.8;"/>
     </g>
     <g id="line2d_14">
      <g>
       <use style="fill:#555555;stroke:#555555;stroke-width:0.8;" x="747.163636" xlink:href="#mab3f0c285c" y="630"/>
      </g>
     </g>
     <g id="text_7">
      <!-- 2020 -->
      <g style="fill:#555555;" transform="translate(734.438636 644.598438)scale(0.1 -0.1)">
       <use xlink:href="#DejaVuSans-32"/>
       <use x="63.623047" xlink:href="#DejaVuSans-30"/>
       <use x="127.246094" xlink:href="#DejaVuSans-32"/>
       <use x="190.869141" xlink:href="#DejaVuSans-30"/>
      </g>
     </g>
    </g>
   </g>
   <g id="matplotlib.axis_2">
    <g id="ytick_1">
     <g id="line2d_15">
      <path clip-path="url(#p4a5e92109a)" d="M 108 615.649521 
L 777.6 615.649521 
" style="fill:none;stroke:#ffffff;stroke-linecap:square;stroke-width:0.8;"/>
     </g>
     <g id="line2d_16">
      <defs>
       <path d="M 0 0 
L -3.5 0 
" id="m7f218299b1" style="stroke:#555555;stroke-width:0.8;"/>
      </defs>
      <g>
       <use style="fill:#555555;stroke:#555555;stroke-width:0.8;" x="108" xlink:href="#m7f218299b1" y="615.649521"/>
      </g>
     </g>
     <g id="text_8">
      <!-- −2 -->
      <g style="fill:#555555;" transform="translate(86.257812 619.44874)scale(0.1 -0.1)">
       <defs>
        <path d="M 678 2272 
L 4684 2272 
L 4684 1741 
L 678 1741 
L 678 2272 
z
" id="DejaVuSans-2212" transform="scale(0.015625)"/>
       </defs>
       <use xlink:href="#DejaVuSans-2212"/>
       <use x="83.789062" xlink:href="#DejaVuSans-32"/>
      </g>
     </g>
    </g>
    <g id="ytick_2">
     <g id="line2d_17">
      <path clip-path="url(#p4a5e92109a)" d="M 108 526.937858 
L 777.6 526.937858 
" style="fill:none;stroke:#ffffff;stroke-linecap:square;stroke-width:0.8;"/>
     </g>
     <g id="line2d_18">
      <g>
       <use style="fill:#555555;stroke:#555555;stroke-width:0.8;" x="108" xlink:href="#m7f218299b1" y="526.937858"/>
      </g>
     </g>
     <g id="text_9">
      <!-- −1 -->
      <g style="fill:#555555;" transform="translate(86.257812 530.737077)scale(0.1 -0.1)">
       <use xlink:href="#DejaVuSans-2212"/>
       <use x="83.789062" xlink:href="#DejaVuSans-31"/>
      </g>
     </g>
    </g>
    <g id="ytick_3">
     <g id="line2d_19">
      <path clip-path="url(#p4a5e92109a)" d="M 108 438.226195 
L 777.6 438.226195 
" style="fill:none;stroke:#ffffff;stroke-linecap:square;stroke-width:0.8;"/>
     </g>
     <g id="line2d_20">
      <g>
       <use style="fill:#555555;stroke:#555555;stroke-width:0.8;" x="108" xlink:href="#m7f218299b1" y="438.226195"/>
      </g>
     </g>
     <g id="text_10">
      <!-- 0 -->
      <g style="fill:#555555;" transform="translate(94.6375 442.025414)scale(0.1 -0.1)">
       <use xlink:href="#DejaVuSans-30"/>
      </g>
     </g>
    </g>
    <g id="ytick_4">
     <g id="line2d_21">
      <path clip-path="url(#p4a5e92109a)" d="M 108 349.514532 
L 777.6 349.514532 
" style="fill:none;stroke:#ffffff;stroke-linecap:square;stroke-width:0.8;"/>
     </g>
     <g id="line2d_22">
      <g>
       <use style="fill:#555555;stroke:#555555;stroke-width:0.8;" x="108" xlink:href="#m7f218299b1" y="349.514532"/>
      </g>
     </g>
     <g id="text_11">
      <!-- 1 -->
      <g style="fill:#555555;" transform="translate(94.6375 353.313751)scale(0.1 -0.1)">
       <use xlink:href="#DejaVuSans-31"/>
      </g>
     </g>
    </g>
    <g id="ytick_5">
     <g id="line2d_23">
      <path clip-path="url(#p4a5e92109a)" d="M 108 260.802869 
L 777.6 260.802869 
" style="fill:none;stroke:#ffffff;stroke-linecap:square;stroke-width:0.8;"/>
     </g>
     <g id="line2d_24">
      <g>
       <use style="fill:#555555;stroke:#555555;stroke-width:0.8;" x="108" xlink:href="#m7f218299b1" y="260.802869"/>
      </g>
     </g>
     <g id="text_12">
      <!-- 2 -->
      <g style="fill:#555555;" transform="translate(94.6375 264.602088)scale(0.1 -0.1)">
       <use xlink:href="#DejaVuSans-32"/>
      </g>
     </g>
    </g>
    <g id="ytick_6">
     <g id="line2d_25">
      <path clip-path="url(#p4a5e92109a)" d="M 108 172.091206 
L 777.6 172.091206 
" style="fill:none;stroke:#ffffff;stroke-linecap:square;stroke-width:0.8;"/>
     </g>
     <g id="line2d_26">
      <g>
       <use style="fill:#555555;stroke:#555555;stroke-width:0.8;" x="108" xlink:href="#m7f218299b1" y="172.091206"/>
      </g>
     </g>
     <g id="text_13">
      <!-- 3 -->
      <g style="fill:#555555;" transform="translate(94.6375 175.890425)scale(0.1 -0.1)">
       <defs>
        <path d="M 2597 2516 
Q 3050 2419 3304 2112 
Q 3559 1806 3559 1356 
Q 3559 666 3084 287 
Q 2609 -91 1734 -91 
Q 1441 -91 1130 -33 
Q 819 25 488 141 
L 488 750 
Q 750 597 1062 519 
Q 1375 441 1716 441 
Q 2309 441 2620 675 
Q 2931 909 2931 1356 
Q 2931 1769 2642 2001 
Q 2353 2234 1838 2234 
L 1294 2234 
L 1294 2753 
L 1863 2753 
Q 2328 2753 2575 2939 
Q 2822 3125 2822 3475 
Q 2822 3834 2567 4026 
Q 2313 4219 1838 4219 
Q 1578 4219 1281 4162 
Q 984 4106 628 3988 
L 628 4550 
Q 988 4650 1302 4700 
Q 1616 4750 1894 4750 
Q 2613 4750 3031 4423 
Q 3450 4097 3450 3541 
Q 3450 3153 3228 2886 
Q 3006 2619 2597 2516 
z
" id="DejaVuSans-33" transform="scale(0.015625)"/>
       </defs>
       <use xlink:href="#DejaVuSans-33"/>
      </g>
     </g>
    </g>
   </g>
   <g id="LineCollection_1">
    <path clip-path="url(#p4a5e92109a)" d="M 244.722078 438.226195 
L 244.722078 486.108718 
" style="fill:none;stroke:#0000ff;stroke-width:1.5;"/>
    <path clip-path="url(#p4a5e92109a)" d="M 254.384416 438.226195 
L 254.384416 514.940009 
" style="fill:none;stroke:#0000ff;stroke-width:1.5;"/>
    <path clip-path="url(#p4a5e92109a)" d="M 264.046753 438.226195 
L 264.046753 447.51194 
" style="fill:none;stroke:#0000ff;stroke-width:1.5;"/>
    <path clip-path="url(#p4a5e92109a)" d="M 293.033766 438.226195 
L 293.033766 450.527627 
" style="fill:none;stroke:#0000ff;stroke-width:1.5;"/>
    <path clip-path="url(#p4a5e92109a)" d="M 312.358442 438.226195 
L 312.358442 464.509357 
" style="fill:none;stroke:#0000ff;stroke-width:1.5;"/>
    <path clip-path="url(#p4a5e92109a)" d="M 322.020779 438.226195 
L 322.020779 563.442146 
" style="fill:none;stroke:#0000ff;stroke-width:1.5;"/>
    <path clip-path="url(#p4a5e92109a)" d="M 341.345455 438.226195 
L 341.345455 477.430404 
" style="fill:none;stroke:#0000ff;stroke-width:1.5;"/>
    <path clip-path="url(#p4a5e92109a)" d="M 351.007792 438.226195 
L 351.007792 445.51349 
" style="fill:none;stroke:#0000ff;stroke-width:1.5;"/>
    <path clip-path="url(#p4a5e92109a)" d="M 360.67013 438.226195 
L 360.67013 494.594182 
" style="fill:none;stroke:#0000ff;stroke-width:1.5;"/>
    <path clip-path="url(#p4a5e92109a)" d="M 370.332468 438.226195 
L 370.332468 498.065508 
" style="fill:none;stroke:#0000ff;stroke-width:1.5;"/>
    <path clip-path="url(#p4a5e92109a)" d="M 379.994805 438.226195 
L 379.994805 545.121259 
" style="fill:none;stroke:#0000ff;stroke-width:1.5;"/>
    <path clip-path="url(#p4a5e92109a)" d="M 389.657143 438.226195 
L 389.657143 605.290909 
" style="fill:none;stroke:#0000ff;stroke-width:1.5;"/>
    <path clip-path="url(#p4a5e92109a)" d="M 399.319481 438.226195 
L 399.319481 604.423078 
" style="fill:none;stroke:#0000ff;stroke-width:1.5;"/>
    <path clip-path="url(#p4a5e92109a)" d="M 408.981818 438.226195 
L 408.981818 461.616585 
" style="fill:none;stroke:#0000ff;stroke-width:1.5;"/>
    <path clip-path="url(#p4a5e92109a)" d="M 428.306494 438.226195 
L 428.306494 466.437871 
" style="fill:none;stroke:#0000ff;stroke-width:1.5;"/>
    <path clip-path="url(#p4a5e92109a)" d="M 447.631169 438.226195 
L 447.631169 450.527627 
" style="fill:none;stroke:#0000ff;stroke-width:1.5;"/>
    <path clip-path="url(#p4a5e92109a)" d="M 466.955844 438.226195 
L 466.955844 451.106182 
" style="fill:none;stroke:#0000ff;stroke-width:1.5;"/>
    <path clip-path="url(#p4a5e92109a)" d="M 476.618182 438.226195 
L 476.618182 458.723814 
" style="fill:none;stroke:#0000ff;stroke-width:1.5;"/>
   </g>
   <g id="LineCollection_2">
    <path clip-path="url(#p4a5e92109a)" d="M 138.436364 438.226195 
L 138.436364 273.241164 
" style="fill:none;stroke:#ff8c00;stroke-width:1.5;"/>
    <path clip-path="url(#p4a5e92109a)" d="M 148.098701 438.226195 
L 148.098701 362.876647 
" style="fill:none;stroke:#ff8c00;stroke-width:1.5;"/>
    <path clip-path="url(#p4a5e92109a)" d="M 177.085714 438.226195 
L 177.085714 400.771956 
" style="fill:none;stroke:#ff8c00;stroke-width:1.5;"/>
    <path clip-path="url(#p4a5e92109a)" d="M 186.748052 438.226195 
L 186.748052 323.920656 
" style="fill:none;stroke:#ff8c00;stroke-width:1.5;"/>
    <path clip-path="url(#p4a5e92109a)" d="M 196.41039 438.226195 
L 196.41039 319.123742 
" style="fill:none;stroke:#ff8c00;stroke-width:1.5;"/>
    <path clip-path="url(#p4a5e92109a)" d="M 206.072727 438.226195 
L 206.072727 428.253286 
" style="fill:none;stroke:#ff8c00;stroke-width:1.5;"/>
    <path clip-path="url(#p4a5e92109a)" d="M 215.735065 438.226195 
L 215.735065 413.114448 
" style="fill:none;stroke:#ff8c00;stroke-width:1.5;"/>
    <path clip-path="url(#p4a5e92109a)" d="M 225.397403 438.226195 
L 225.397403 367.601508 
" style="fill:none;stroke:#ff8c00;stroke-width:1.5;"/>
    <path clip-path="url(#p4a5e92109a)" d="M 235.05974 438.226195 
L 235.05974 397.97561 
" style="fill:none;stroke:#ff8c00;stroke-width:1.5;"/>
    <path clip-path="url(#p4a5e92109a)" d="M 302.696104 438.226195 
L 302.696104 413.329724 
" style="fill:none;stroke:#ff8c00;stroke-width:1.5;"/>
    <path clip-path="url(#p4a5e92109a)" d="M 331.683117 438.226195 
L 331.683117 409.257419 
" style="fill:none;stroke:#ff8c00;stroke-width:1.5;"/>
    <path clip-path="url(#p4a5e92109a)" d="M 418.644156 438.226195 
L 418.644156 385.440266 
" style="fill:none;stroke:#ff8c00;stroke-width:1.5;"/>
    <path clip-path="url(#p4a5e92109a)" d="M 437.968831 438.226195 
L 437.968831 375.701268 
" style="fill:none;stroke:#ff8c00;stroke-width:1.5;"/>
    <path clip-path="url(#p4a5e92109a)" d="M 457.293506 438.226195 
L 457.293506 404.532559 
" style="fill:none;stroke:#ff8c00;stroke-width:1.5;"/>
    <path clip-path="url(#p4a5e92109a)" d="M 486.280519 438.226195 
L 486.280519 387.561632 
" style="fill:none;stroke:#ff8c00;stroke-width:1.5;"/>
    <path clip-path="url(#p4a5e92109a)" d="M 495.942857 438.226195 
L 495.942857 356.126847 
" style="fill:none;stroke:#ff8c00;stroke-width:1.5;"/>
    <path clip-path="url(#p4a5e92109a)" d="M 505.605195 438.226195 
L 505.605195 360.369579 
" style="fill:none;stroke:#ff8c00;stroke-width:1.5;"/>
    <path clip-path="url(#p4a5e92109a)" d="M 515.267532 438.226195 
L 515.267532 339.059494 
" style="fill:none;stroke:#ff8c00;stroke-width:1.5;"/>
    <path clip-path="url(#p4a5e92109a)" d="M 524.92987 438.226195 
L 524.92987 420.346377 
" style="fill:none;stroke:#ff8c00;stroke-width:1.5;"/>
    <path clip-path="url(#p4a5e92109a)" d="M 534.592208 438.226195 
L 534.592208 270.018678 
" style="fill:none;stroke:#ff8c00;stroke-width:1.5;"/>
    <path clip-path="url(#p4a5e92109a)" d="M 544.254545 438.226195 
L 544.254545 283.711131 
" style="fill:none;stroke:#ff8c00;stroke-width:1.5;"/>
    <path clip-path="url(#p4a5e92109a)" d="M 553.916883 438.226195 
L 553.916883 298.753543 
" style="fill:none;stroke:#ff8c00;stroke-width:1.5;"/>
    <path clip-path="url(#p4a5e92109a)" d="M 563.579221 438.226195 
L 563.579221 308.97467 
" style="fill:none;stroke:#ff8c00;stroke-width:1.5;"/>
    <path clip-path="url(#p4a5e92109a)" d="M 573.241558 438.226195 
L 573.241558 325.945596 
" style="fill:none;stroke:#ff8c00;stroke-width:1.5;"/>
    <path clip-path="url(#p4a5e92109a)" d="M 582.903896 438.226195 
L 582.903896 271.079361 
" style="fill:none;stroke:#ff8c00;stroke-width:1.5;"/>
    <path clip-path="url(#p4a5e92109a)" d="M 592.566234 438.226195 
L 592.566234 403.857579 
" style="fill:none;stroke:#ff8c00;stroke-width:1.5;"/>
    <path clip-path="url(#p4a5e92109a)" d="M 602.228571 438.226195 
L 602.228571 386.790226 
" style="fill:none;stroke:#ff8c00;stroke-width:1.5;"/>
    <path clip-path="url(#p4a5e92109a)" d="M 611.890909 438.226195 
L 611.890909 370.012151 
" style="fill:none;stroke:#ff8c00;stroke-width:1.5;"/>
    <path clip-path="url(#p4a5e92109a)" d="M 621.553247 438.226195 
L 621.553247 258.000431 
" style="fill:none;stroke:#ff8c00;stroke-width:1.5;"/>
    <path clip-path="url(#p4a5e92109a)" d="M 631.215584 438.226195 
L 631.215584 266.450927 
" style="fill:none;stroke:#ff8c00;stroke-width:1.5;"/>
    <path clip-path="url(#p4a5e92109a)" d="M 640.877922 438.226195 
L 640.877922 335.78102 
" style="fill:none;stroke:#ff8c00;stroke-width:1.5;"/>
    <path clip-path="url(#p4a5e92109a)" d="M 650.54026 438.226195 
L 650.54026 284.771814 
" style="fill:none;stroke:#ff8c00;stroke-width:1.5;"/>
    <path clip-path="url(#p4a5e92109a)" d="M 660.202597 438.226195 
L 660.202597 184.874767 
" style="fill:none;stroke:#ff8c00;stroke-width:1.5;"/>
    <path clip-path="url(#p4a5e92109a)" d="M 669.864935 438.226195 
L 669.864935 111.109091 
" style="fill:none;stroke:#ff8c00;stroke-width:1.5;"/>
    <path clip-path="url(#p4a5e92109a)" d="M 679.527273 438.226195 
L 679.527273 284.096834 
" style="fill:none;stroke:#ff8c00;stroke-width:1.5;"/>
    <path clip-path="url(#p4a5e92109a)" d="M 689.18961 438.226195 
L 689.18961 314.663787 
" style="fill:none;stroke:#ff8c00;stroke-width:1.5;"/>
    <path clip-path="url(#p4a5e92109a)" d="M 698.851948 438.226195 
L 698.851948 341.470137 
" style="fill:none;stroke:#ff8c00;stroke-width:1.5;"/>
    <path clip-path="url(#p4a5e92109a)" d="M 708.514286 438.226195 
L 708.514286 267.704461 
" style="fill:none;stroke:#ff8c00;stroke-width:1.5;"/>
    <path clip-path="url(#p4a5e92109a)" d="M 718.176623 438.226195 
L 718.176623 273.58643 
" style="fill:none;stroke:#ff8c00;stroke-width:1.5;"/>
    <path clip-path="url(#p4a5e92109a)" d="M 727.838961 438.226195 
L 727.838961 331.345437 
" style="fill:none;stroke:#ff8c00;stroke-width:1.5;"/>
    <path clip-path="url(#p4a5e92109a)" d="M 737.501299 438.226195 
L 737.501299 278.31129 
" style="fill:none;stroke:#ff8c00;stroke-width:1.5;"/>
    <path clip-path="url(#p4a5e92109a)" d="M 747.163636 438.226195 
L 747.163636 336.359574 
" style="fill:none;stroke:#ff8c00;stroke-width:1.5;"/>
   </g>
   <g id="line2d_27"/>
   <g id="line2d_28">
    <path clip-path="url(#p4a5e92109a)" d="M 244.722078 438.226195 
L 476.618182 438.226195 
" style="fill:none;stroke:#777777;stroke-linecap:square;stroke-width:1.5;"/>
   </g>
   <g id="line2d_29"/>
   <g id="line2d_30">
    <path clip-path="url(#p4a5e92109a)" d="M 138.436364 438.226195 
L 747.163636 438.226195 
" style="fill:none;stroke:#777777;stroke-linecap:square;stroke-width:1.5;"/>
   </g>
   <g id="line2d_31">
    <path clip-path="url(#p4a5e92109a)" d="M 138.436364 273.241164 
L 148.098701 318.058906 
L 157.761039 318.058906 
L 167.423377 318.058906 
L 177.085714 345.629922 
L 186.748052 340.202606 
L 196.41039 335.986833 
L 206.072727 351.364575 
L 215.735065 360.185986 
L 225.397403 361.112926 
L 235.05974 376.704732 
L 244.722078 392.10874 
L 254.384416 405.756659 
L 264.046753 409.932187 
L 273.709091 410.949991 
L 283.371429 421.828657 
L 293.033766 438.254143 
L 302.696104 436.388698 
L 312.358442 442.813062 
L 322.020779 467.293141 
L 331.683117 468.703368 
L 341.345455 467.618578 
L 351.007792 458.940263 
L 360.67013 464.825544 
L 370.332468 468.518873 
L 379.994805 476.179112 
L 389.657143 491.65544 
L 399.319481 510.764775 
L 408.981818 510.475498 
L 418.644156 492.67531 
L 428.306494 498.393355 
L 437.968831 488.220442 
L 447.631169 488.721855 
L 457.293506 479.715693 
L 466.955844 475.019761 
L 476.618182 466.380016 
L 486.280519 444.607088 
L 495.942857 419.777465 
L 505.605195 409.652765 
L 515.267532 405.014687 
L 524.92987 400.405538 
L 534.592208 389.837279 
L 544.254545 373.155629 
L 553.916883 362.577728 
L 563.579221 348.364576 
L 573.241558 335.086755 
L 582.903896 323.438528 
L 592.566234 328.211601 
L 602.228571 330.853666 
L 611.890909 333.948931 
L 621.553247 317.714337 
L 631.215584 317.357562 
L 640.877922 322.56455 
L 650.54026 321.166377 
L 660.202597 308.756387 
L 669.864935 287.272737 
L 679.527273 288.574484 
L 689.18961 279.655105 
L 698.851948 275.123096 
L 708.514286 264.892327 
L 718.176623 266.450927 
L 727.838961 272.940378 
L 737.501299 267.193405 
L 747.163636 272.352181 
" style="fill:none;stroke:#988ed5;stroke-linecap:square;stroke-width:1.5;"/>
   </g>
   <g id="patch_3">
    <path d="M 108 630 
L 108 86.4 
" style="fill:none;stroke:#ffffff;stroke-linecap:square;stroke-linejoin:miter;"/>
   </g>
   <g id="patch_4">
    <path d="M 777.6 630 
L 777.6 86.4 
" style="fill:none;stroke:#ffffff;stroke-linecap:square;stroke-linejoin:miter;"/>
   </g>
   <g id="patch_5">
    <path d="M 108 630 
L 777.6 630 
" style="fill:none;stroke:#ffffff;stroke-linecap:square;stroke-linejoin:miter;"/>
   </g>
   <g id="patch_6">
    <path d="M 108 86.4 
L 777.6 86.4 
" style="fill:none;stroke:#ffffff;stroke-linecap:square;stroke-linejoin:miter;"/>
   </g>
   <g id="text_14">
    <!-- Mean Summer Temperature Difference from the 1974-1999 Mean -->
    <g transform="translate(206.355375 80.4)scale(0.144 -0.144)">
     <defs>
      <path d="M 628 4666 
L 1569 4666 
L 2759 1491 
L 3956 4666 
L 4897 4666 
L 4897 0 
L 4281 0 
L 4281 4097 
L 3078 897 
L 2444 897 
L 1241 4097 
L 1241 0 
L 628 0 
L 628 4666 
z
" id="DejaVuSans-4d" transform="scale(0.015625)"/>
      <path d="M 3597 1894 
L 3597 1613 
L 953 1613 
Q 991 1019 1311 708 
Q 1631 397 2203 397 
Q 2534 397 2845 478 
Q 3156 559 3463 722 
L 3463 178 
Q 3153 47 2828 -22 
Q 2503 -91 2169 -91 
Q 1331 -91 842 396 
Q 353 884 353 1716 
Q 353 2575 817 3079 
Q 1281 3584 2069 3584 
Q 2775 3584 3186 3129 
Q 3597 2675 3597 1894 
z
M 3022 2063 
Q 3016 2534 2758 2815 
Q 2500 3097 2075 3097 
Q 1594 3097 1305 2825 
Q 1016 2553 972 2059 
L 3022 2063 
z
" id="DejaVuSans-65" transform="scale(0.015625)"/>
      <path d="M 2194 1759 
Q 1497 1759 1228 1600 
Q 959 1441 959 1056 
Q 959 750 1161 570 
Q 1363 391 1709 391 
Q 2188 391 2477 730 
Q 2766 1069 2766 1631 
L 2766 1759 
L 2194 1759 
z
M 3341 1997 
L 3341 0 
L 2766 0 
L 2766 531 
Q 2569 213 2275 61 
Q 1981 -91 1556 -91 
Q 1019 -91 701 211 
Q 384 513 384 1019 
Q 384 1609 779 1909 
Q 1175 2209 1959 2209 
L 2766 2209 
L 2766 2266 
Q 2766 2663 2505 2880 
Q 2244 3097 1772 3097 
Q 1472 3097 1187 3025 
Q 903 2953 641 2809 
L 641 3341 
Q 956 3463 1253 3523 
Q 1550 3584 1831 3584 
Q 2591 3584 2966 3190 
Q 3341 2797 3341 1997 
z
" id="DejaVuSans-61" transform="scale(0.015625)"/>
      <path d="M 3513 2113 
L 3513 0 
L 2938 0 
L 2938 2094 
Q 2938 2591 2744 2837 
Q 2550 3084 2163 3084 
Q 1697 3084 1428 2787 
Q 1159 2491 1159 1978 
L 1159 0 
L 581 0 
L 581 3500 
L 1159 3500 
L 1159 2956 
Q 1366 3272 1645 3428 
Q 1925 3584 2291 3584 
Q 2894 3584 3203 3211 
Q 3513 2838 3513 2113 
z
" id="DejaVuSans-6e" transform="scale(0.015625)"/>
      <path id="DejaVuSans-20" transform="scale(0.015625)"/>
      <path d="M 3425 4513 
L 3425 3897 
Q 3066 4069 2747 4153 
Q 2428 4238 2131 4238 
Q 1616 4238 1336 4038 
Q 1056 3838 1056 3469 
Q 1056 3159 1242 3001 
Q 1428 2844 1947 2747 
L 2328 2669 
Q 3034 2534 3370 2195 
Q 3706 1856 3706 1288 
Q 3706 609 3251 259 
Q 2797 -91 1919 -91 
Q 1588 -91 1214 -16 
Q 841 59 441 206 
L 441 856 
Q 825 641 1194 531 
Q 1563 422 1919 422 
Q 2459 422 2753 634 
Q 3047 847 3047 1241 
Q 3047 1584 2836 1778 
Q 2625 1972 2144 2069 
L 1759 2144 
Q 1053 2284 737 2584 
Q 422 2884 422 3419 
Q 422 4038 858 4394 
Q 1294 4750 2059 4750 
Q 2388 4750 2728 4690 
Q 3069 4631 3425 4513 
z
" id="DejaVuSans-53" transform="scale(0.015625)"/>
      <path d="M 544 1381 
L 544 3500 
L 1119 3500 
L 1119 1403 
Q 1119 906 1312 657 
Q 1506 409 1894 409 
Q 2359 409 2629 706 
Q 2900 1003 2900 1516 
L 2900 3500 
L 3475 3500 
L 3475 0 
L 2900 0 
L 2900 538 
Q 2691 219 2414 64 
Q 2138 -91 1772 -91 
Q 1169 -91 856 284 
Q 544 659 544 1381 
z
M 1991 3584 
L 1991 3584 
z
" id="DejaVuSans-75" transform="scale(0.015625)"/>
      <path d="M 3328 2828 
Q 3544 3216 3844 3400 
Q 4144 3584 4550 3584 
Q 5097 3584 5394 3201 
Q 5691 2819 5691 2113 
L 5691 0 
L 5113 0 
L 5113 2094 
Q 5113 2597 4934 2840 
Q 4756 3084 4391 3084 
Q 3944 3084 3684 2787 
Q 3425 2491 3425 1978 
L 3425 0 
L 2847 0 
L 2847 2094 
Q 2847 2600 2669 2842 
Q 2491 3084 2119 3084 
Q 1678 3084 1418 2786 
Q 1159 2488 1159 1978 
L 1159 0 
L 581 0 
L 581 3500 
L 1159 3500 
L 1159 2956 
Q 1356 3278 1631 3431 
Q 1906 3584 2284 3584 
Q 2666 3584 2933 3390 
Q 3200 3197 3328 2828 
z
" id="DejaVuSans-6d" transform="scale(0.015625)"/>
      <path d="M 2631 2963 
Q 2534 3019 2420 3045 
Q 2306 3072 2169 3072 
Q 1681 3072 1420 2755 
Q 1159 2438 1159 1844 
L 1159 0 
L 581 0 
L 581 3500 
L 1159 3500 
L 1159 2956 
Q 1341 3275 1631 3429 
Q 1922 3584 2338 3584 
Q 2397 3584 2469 3576 
Q 2541 3569 2628 3553 
L 2631 2963 
z
" id="DejaVuSans-72" transform="scale(0.015625)"/>
      <path d="M -19 4666 
L 3928 4666 
L 3928 4134 
L 2272 4134 
L 2272 0 
L 1638 0 
L 1638 4134 
L -19 4134 
L -19 4666 
z
" id="DejaVuSans-54" transform="scale(0.015625)"/>
      <path d="M 1159 525 
L 1159 -1331 
L 581 -1331 
L 581 3500 
L 1159 3500 
L 1159 2969 
Q 1341 3281 1617 3432 
Q 1894 3584 2278 3584 
Q 2916 3584 3314 3078 
Q 3713 2572 3713 1747 
Q 3713 922 3314 415 
Q 2916 -91 2278 -91 
Q 1894 -91 1617 61 
Q 1341 213 1159 525 
z
M 3116 1747 
Q 3116 2381 2855 2742 
Q 2594 3103 2138 3103 
Q 1681 3103 1420 2742 
Q 1159 2381 1159 1747 
Q 1159 1113 1420 752 
Q 1681 391 2138 391 
Q 2594 391 2855 752 
Q 3116 1113 3116 1747 
z
" id="DejaVuSans-70" transform="scale(0.015625)"/>
      <path d="M 1172 4494 
L 1172 3500 
L 2356 3500 
L 2356 3053 
L 1172 3053 
L 1172 1153 
Q 1172 725 1289 603 
Q 1406 481 1766 481 
L 2356 481 
L 2356 0 
L 1766 0 
Q 1100 0 847 248 
Q 594 497 594 1153 
L 594 3053 
L 172 3053 
L 172 3500 
L 594 3500 
L 594 4494 
L 1172 4494 
z
" id="DejaVuSans-74" transform="scale(0.015625)"/>
      <path d="M 1259 4147 
L 1259 519 
L 2022 519 
Q 2988 519 3436 956 
Q 3884 1394 3884 2338 
Q 3884 3275 3436 3711 
Q 2988 4147 2022 4147 
L 1259 4147 
z
M 628 4666 
L 1925 4666 
Q 3281 4666 3915 4102 
Q 4550 3538 4550 2338 
Q 4550 1131 3912 565 
Q 3275 0 1925 0 
L 628 0 
L 628 4666 
z
" id="DejaVuSans-44" transform="scale(0.015625)"/>
      <path d="M 603 3500 
L 1178 3500 
L 1178 0 
L 603 0 
L 603 3500 
z
M 603 4863 
L 1178 4863 
L 1178 4134 
L 603 4134 
L 603 4863 
z
" id="DejaVuSans-69" transform="scale(0.015625)"/>
      <path d="M 2375 4863 
L 2375 4384 
L 1825 4384 
Q 1516 4384 1395 4259 
Q 1275 4134 1275 3809 
L 1275 3500 
L 2222 3500 
L 2222 3053 
L 1275 3053 
L 1275 0 
L 697 0 
L 697 3053 
L 147 3053 
L 147 3500 
L 697 3500 
L 697 3744 
Q 697 4328 969 4595 
Q 1241 4863 1831 4863 
L 2375 4863 
z
" id="DejaVuSans-66" transform="scale(0.015625)"/>
      <path d="M 3122 3366 
L 3122 2828 
Q 2878 2963 2633 3030 
Q 2388 3097 2138 3097 
Q 1578 3097 1268 2742 
Q 959 2388 959 1747 
Q 959 1106 1268 751 
Q 1578 397 2138 397 
Q 2388 397 2633 464 
Q 2878 531 3122 666 
L 3122 134 
Q 2881 22 2623 -34 
Q 2366 -91 2075 -91 
Q 1284 -91 818 406 
Q 353 903 353 1747 
Q 353 2603 823 3093 
Q 1294 3584 2113 3584 
Q 2378 3584 2631 3529 
Q 2884 3475 3122 3366 
z
" id="DejaVuSans-63" transform="scale(0.015625)"/>
      <path d="M 1959 3097 
Q 1497 3097 1228 2736 
Q 959 2375 959 1747 
Q 959 1119 1226 758 
Q 1494 397 1959 397 
Q 2419 397 2687 759 
Q 2956 1122 2956 1747 
Q 2956 2369 2687 2733 
Q 2419 3097 1959 3097 
z
M 1959 3584 
Q 2709 3584 3137 3096 
Q 3566 2609 3566 1747 
Q 3566 888 3137 398 
Q 2709 -91 1959 -91 
Q 1206 -91 779 398 
Q 353 888 353 1747 
Q 353 2609 779 3096 
Q 1206 3584 1959 3584 
z
" id="DejaVuSans-6f" transform="scale(0.015625)"/>
      <path d="M 3513 2113 
L 3513 0 
L 2938 0 
L 2938 2094 
Q 2938 2591 2744 2837 
Q 2550 3084 2163 3084 
Q 1697 3084 1428 2787 
Q 1159 2491 1159 1978 
L 1159 0 
L 581 0 
L 581 4863 
L 1159 4863 
L 1159 2956 
Q 1366 3272 1645 3428 
Q 1925 3584 2291 3584 
Q 2894 3584 3203 3211 
Q 3513 2838 3513 2113 
z
" id="DejaVuSans-68" transform="scale(0.015625)"/>
      <path d="M 2419 4116 
L 825 1625 
L 2419 1625 
L 2419 4116 
z
M 2253 4666 
L 3047 4666 
L 3047 1625 
L 3713 1625 
L 3713 1100 
L 3047 1100 
L 3047 0 
L 2419 0 
L 2419 1100 
L 313 1100 
L 313 1709 
L 2253 4666 
z
" id="DejaVuSans-34" transform="scale(0.015625)"/>
      <path d="M 313 2009 
L 1997 2009 
L 1997 1497 
L 313 1497 
L 313 2009 
z
" id="DejaVuSans-2d" transform="scale(0.015625)"/>
     </defs>
     <use xlink:href="#DejaVuSans-4d"/>
     <use x="86.279297" xlink:href="#DejaVuSans-65"/>
     <use x="147.802734" xlink:href="#DejaVuSans-61"/>
     <use x="209.082031" xlink:href="#DejaVuSans-6e"/>
     <use x="272.460938" xlink:href="#DejaVuSans-20"/>
     <use x="304.248047" xlink:href="#DejaVuSans-53"/>
     <use x="367.724609" xlink:href="#DejaVuSans-75"/>
     <use x="431.103516" xlink:href="#DejaVuSans-6d"/>
     <use x="528.515625" xlink:href="#DejaVuSans-6d"/>
     <use x="625.927734" xlink:href="#DejaVuSans-65"/>
     <use x="687.451172" xlink:href="#DejaVuSans-72"/>
     <use x="728.564453" xlink:href="#DejaVuSans-20"/>
     <use x="760.351562" xlink:href="#DejaVuSans-54"/>
     <use x="804.435547" xlink:href="#DejaVuSans-65"/>
     <use x="865.958984" xlink:href="#DejaVuSans-6d"/>
     <use x="963.371094" xlink:href="#DejaVuSans-70"/>
     <use x="1026.847656" xlink:href="#DejaVuSans-65"/>
     <use x="1088.371094" xlink:href="#DejaVuSans-72"/>
     <use x="1129.484375" xlink:href="#DejaVuSans-61"/>
     <use x="1190.763672" xlink:href="#DejaVuSans-74"/>
     <use x="1229.972656" xlink:href="#DejaVuSans-75"/>
     <use x="1293.351562" xlink:href="#DejaVuSans-72"/>
     <use x="1332.214844" xlink:href="#DejaVuSans-65"/>
     <use x="1393.738281" xlink:href="#DejaVuSans-20"/>
     <use x="1425.525391" xlink:href="#DejaVuSans-44"/>
     <use x="1502.527344" xlink:href="#DejaVuSans-69"/>
     <use x="1530.310547" xlink:href="#DejaVuSans-66"/>
     <use x="1565.515625" xlink:href="#DejaVuSans-66"/>
     <use x="1600.720703" xlink:href="#DejaVuSans-65"/>
     <use x="1662.244141" xlink:href="#DejaVuSans-72"/>
     <use x="1701.107422" xlink:href="#DejaVuSans-65"/>
     <use x="1762.630859" xlink:href="#DejaVuSans-6e"/>
     <use x="1826.009766" xlink:href="#DejaVuSans-63"/>
     <use x="1880.990234" xlink:href="#DejaVuSans-65"/>
     <use x="1942.513672" xlink:href="#DejaVuSans-20"/>
     <use x="1974.300781" xlink:href="#DejaVuSans-66"/>
     <use x="2009.505859" xlink:href="#DejaVuSans-72"/>
     <use x="2048.369141" xlink:href="#DejaVuSans-6f"/>
     <use x="2109.550781" xlink:href="#DejaVuSans-6d"/>
     <use x="2206.962891" xlink:href="#DejaVuSans-20"/>
     <use x="2238.75" xlink:href="#DejaVuSans-74"/>
     <use x="2277.958984" xlink:href="#DejaVuSans-68"/>
     <use x="2341.337891" xlink:href="#DejaVuSans-65"/>
     <use x="2402.861328" xlink:href="#DejaVuSans-20"/>
     <use x="2434.648438" xlink:href="#DejaVuSans-31"/>
     <use x="2498.271484" xlink:href="#DejaVuSans-39"/>
     <use x="2561.894531" xlink:href="#DejaVuSans-37"/>
     <use x="2625.517578" xlink:href="#DejaVuSans-34"/>
     <use x="2689.140625" xlink:href="#DejaVuSans-2d"/>
     <use x="2725.224609" xlink:href="#DejaVuSans-31"/>
     <use x="2788.847656" xlink:href="#DejaVuSans-39"/>
     <use x="2852.470703" xlink:href="#DejaVuSans-39"/>
     <use x="2916.09375" xlink:href="#DejaVuSans-39"/>
     <use x="2979.716797" xlink:href="#DejaVuSans-20"/>
     <use x="3011.503906" xlink:href="#DejaVuSans-4d"/>
     <use x="3097.783203" xlink:href="#DejaVuSans-65"/>
     <use x="3159.306641" xlink:href="#DejaVuSans-61"/>
     <use x="3220.585938" xlink:href="#DejaVuSans-6e"/>
    </g>
   </g>
  </g>
 </g>
 <defs>
  <clipPath id="p4a5e92109a">
   <rect height="543.6" width="669.6" x="108" y="86.4"/>
  </clipPath>
 </defs>
</svg>
